<?xml version="1.0" encoding="UTF-8" standalone="no" ?>
<!DOCTYPE svg PUBLIC "-//W3C//DTD SVG 1.1//EN" "http://www.w3.org/Graphics/SVG/1.1/DTD/svg11.dtd">
<svg xmlns="http://www.w3.org/2000/svg" xmlns:xlink="http://www.w3.org/1999/xlink" version="1.1" width="80" height="80" viewBox="0 0 400 400" xml:space="preserve">
<desc>Created with Fabric.js 3.6.2</desc>
<defs>
</defs>
<g transform="matrix(8.33 0 0 8.33 200 200)" id="Github_1"  >
<path style="stroke: none; stroke-width: 1; stroke-dasharray: none; stroke-linecap: butt; stroke-dashoffset: 0; stroke-linejoin: miter; stroke-miterlimit: 4; fill: rgb(48,60,66); fill-rule: nonzero; opacity: 1;"  transform=" translate(-12, -12.01)" d="M 12 0 A 12 12 0 0 0 0 12 A 12.25 12.25 0 0 0 9.39 24 A 0.5 0.5 0 0 0 10 23.5 v -3 a 0.5 0.5 0 0 0 -0.5 -0.5 h -1 c -1.25 0 -2.1 -1.18 -2.85 -2.23 l -0.23 -0.32 a 7.53 7.53 0 0 1 1 0.64 a 3.59 3.59 0 0 0 2.05 0.9 h 0.15 A 1.37 1.37 0 0 0 10 17.5 v -0.35 a 0.5 0.5 0 0 0 -0.36 -0.48 C 6.86 15.88 5 13.81 5 11.5 A 4.74 4.74 0 0 1 6.43 8.19 a 0.5 0.5 0 0 0 0.09 -0.56 a 2.8 2.8 0 0 1 0.15 -2.55 A 4.91 4.91 0 0 1 8.5 6.37 a 0.5 0.5 0 0 0 0.55 0.15 a 8.68 8.68 0 0 1 5.89 0 a 0.5 0.5 0 0 0 0.55 -0.15 a 4.91 4.91 0 0 1 1.83 -1.29 a 2.8 2.8 0 0 1 0.15 2.55 a 0.5 0.5 0 0 0 0.09 0.56 A 4.74 4.74 0 0 1 19 11.5 c 0 2.42 -2.07 4.59 -5 5.27 a 0.5 0.5 0 0 0 -0.33 0.72 a 4.3 4.3 0 0 1 0.36 2 v 4 a 0.5 0.5 0 0 0 0.5 0.5 h 0.11 A 12.25 12.25 0 0 0 24 12 A 12 12 0 0 0 12 0 Z" stroke-linecap="round" />
</g>
</svg>